<?xml version="1.0" encoding="iso-8859-1"?>
<!-- Generator: Adobe Illustrator 19.0.0, SVG Export Plug-In . SVG Version: 6.00 Build 0)  -->
<svg version="1.1" id="Layer_1" xmlns="http://www.w3.org/2000/svg" xmlns:xlink="http://www.w3.org/1999/xlink" x="0px" y="0px"
	 viewBox="0 0 512 512" style="enable-background:new 0 0 512 512;" xml:space="preserve">
<g>
	<g>
		<path d="M66.731,55.914c-23.825-1.904-43.671,17.97-41.772,41.773c4.13,51.719,12.729,89.028,25.613,111.344
			c16.48-53.98,48.594-106.395,90.557-141.598C122.848,62.628,98.684,58.466,66.731,55.914z"/>
	</g>
</g>
<g>
	<g>
		<path d="M445.27,55.914c-31.953,2.551-56.118,6.714-74.398,11.519c41.966,35.206,74.078,87.627,90.556,141.598
			c12.884-22.316,21.483-59.625,25.614-111.345C488.944,73.854,469.067,54.016,445.27,55.914z"/>
	</g>
</g>
<g>
	<g>
		<path d="M203.378,65.685c41.565,62.602,117.494,96.697,194.929,82.05C353.213,76.951,280.249,32.1,203.378,65.685z"/>
	</g>
</g>
<g>
	<g>
		<path d="M496,290.2h-54.305c0.715-38.002-10.165-78.324-27.091-113.245c-92.507,22.119-188.03-16.706-239.164-95.517
			C112.71,125.037,68.892,215.166,70.304,290.201H16c-8.836,0-16,7.164-16,16c0,8.836,7.164,16,16,16h57.995
			c3.325,14.99,8.855,28.638,16.501,40.835L37.13,387.929c-8.008,3.735-11.472,13.255-7.737,21.264
			c3.74,8.017,13.266,11.469,21.264,7.737l61.065-28.483c19.78,18.123,46.378,31.133,79.209,38.386
			c39.042,41.11,91.059,41.152,130.142,0c32.831-7.253,59.428-20.263,79.209-38.386l61.065,28.483
			c8.004,3.734,17.527,0.274,21.264-7.737c3.735-8.009,0.272-17.529-7.737-21.264l-53.366-24.893
			c7.646-12.197,13.177-25.845,16.501-40.835H496c8.836,0,16-7.164,16-16C512,297.365,504.836,290.2,496,290.2z M156.991,234.816
			c0-11.69,9.476-21.166,21.166-21.166c11.69,0,21.166,9.476,21.166,21.166c0,11.69-9.476,21.166-21.166,21.166
			C166.467,255.982,156.991,246.506,156.991,234.816z M301.988,400.171c-27.605,32.978-62.629,34.955-92.116-0.17
			c-15.716-18.978-28.206-48.335-23.421-72.298c3.649-15.435,15.674-28.37,41.765-33.702L240,307.604v23.27l-22.588,23.99
			c-6.058,6.434-5.753,16.56,0.681,22.618c6.435,6.059,16.561,5.754,22.618-0.681l15.29-16.24l15.29,16.24
			c6.059,6.434,16.183,6.738,22.618,0.681c6.433-6.058,6.738-16.183,0.681-22.618L272,330.874v-23.27L283.785,294
			c27.411,5.601,39.282,19.59,42.237,36.045C329.82,353.337,316.957,382.176,301.988,400.171z M333.953,255.982
			c-11.69,0-21.166-9.476-21.166-21.166c0-11.69,9.476-21.166,21.166-21.166s21.166,9.476,21.166,21.166
			S345.643,255.982,333.953,255.982z"/>
	</g>
</g>
<g>
</g>
<g>
</g>
<g>
</g>
<g>
</g>
<g>
</g>
<g>
</g>
<g>
</g>
<g>
</g>
<g>
</g>
<g>
</g>
<g>
</g>
<g>
</g>
<g>
</g>
<g>
</g>
<g>
</g>
</svg>
